<svg xmlns="http://www.w3.org/2000/svg" xmlns:svg="http://www.w3.org/2000/svg" xmlns:xlink="http://www.w3.org/1999/xlink" id="svg2" width="222.783" height="323.556" version="1.1" viewBox="0 0 167.087 242.667" xml:space="preserve"><metadata id="metadata43"/><defs id="defs41"><pattern id="Strips1_1" width="2" height="1" patternTransform="scale(12) rotate(45)" patternUnits="userSpaceOnUse"><rect id="rect4924" width="1" height="2" x="0" y="-.5" style="fill:#131f67;stroke:none"/></pattern></defs><g id="Layer_x0020_1" style="fill-rule:nonzero;clip-rule:nonzero;stroke:#000;stroke-miterlimit:4"><path style="fill:#fff;stroke-width:.5" id="path5" d="M166.8369141,235.5478516c0,3.7773438-3.0869141,6.8691406-6.8710938,6.8691406H7.1108398c-3.7749023,0-6.8608398-3.0917969-6.8608398-6.8691406V7.1201172C0.25,3.3427734,3.3359375,0.25,7.1108398,0.25h152.8549805 c3.7841797,0,6.8710938,3.0927734,6.8710938,6.8701172v228.4277344z"/></g><g id="g6616" transform="matrix(0.8,0,0,0.8,-425.23592,-327.91318)"><g style="display:inline" id="layer1" transform="matrix(0.90177988,0,0,0.93454182,300.94262,69.599353)"><g style="display:inline" id="g13552" transform="translate(520.04751,-131.04053)"><rect id="rect13539" width="197.052" height="286.644" x="-246.526" y="513.9" ry="0" style="fill:none;stroke:#131f67;stroke-width:4.95238304;stroke-linecap:round;stroke-linejoin:miter;stroke-miterlimit:4;stroke-dasharray:none;stroke-opacity:1"/><rect id="rect13541" width="188.277" height="278.906" x="-242.139" y="517.769" style="fill:url(#Strips1_1);fill-opacity:1;stroke:#131f67;stroke-width:1;stroke-linecap:round;stroke-linejoin:miter;stroke-miterlimit:4;stroke-dasharray:none;stroke-opacity:1"/></g></g></g></svg>